<?xml version="1.0" encoding="UTF-8" standalone="no"?>
<!DOCTYPE svg PUBLIC "-//W3C//DTD SVG 1.1//EN" "http://www.w3.org/Graphics/SVG/1.1/DTD/svg11.dtd">
<svg width="100%" height="100%" viewBox="0 0 704 385" version="1.1" xmlns="http://www.w3.org/2000/svg" xmlns:xlink="http://www.w3.org/1999/xlink" xml:space="preserve" xmlns:serif="http://www.serif.com/" style="fill-rule:evenodd;clip-rule:evenodd;stroke-linejoin:round;stroke-miterlimit:2;">
    <g id="Artboard2" transform="matrix(0.351952,0,0,0.384828,0,-404.069563)">
        <rect x="0" y="1050" width="2000" height="1000" style="fill:none;"/>
        <g id="Logo" transform="matrix(1.847109,0,0,3.378615,-839.243651,-3700.235444)">
            <g transform="matrix(2.365314,0,0,1.182657,-334.294294,-299.759746)">
                <path d="M339.515,1564.071L339.515,1480.71L360.836,1480.71L360.836,1492.894C365.218,1483.489 373.714,1478.787 386.325,1478.787C392.31,1478.787 397.707,1480.176 402.516,1482.955C407.326,1485.733 411.12,1489.688 413.898,1494.818C416.677,1499.947 418.066,1506.039 418.066,1513.093L418.066,1564.071L396.425,1564.071L396.425,1518.383C396.425,1511.116 394.768,1505.852 391.455,1502.593C388.142,1499.333 383.814,1497.703 378.47,1497.703C373.874,1497.703 369.84,1499.333 366.366,1502.593C362.893,1505.852 361.156,1511.116 361.156,1518.383L361.156,1564.071L339.515,1564.071Z" style="fill-rule:nonzero;"/>
                <g transform="matrix(1,0,0,1,13.528862,0)">
                    <path d="M552.406,1564.071C544.177,1564.071 537.871,1562.041 533.49,1557.98C529.108,1553.919 526.917,1547.346 526.917,1538.262L526.917,1499.146L515.214,1499.146L515.214,1480.71L526.917,1480.71L526.917,1463.878L548.559,1461.633L548.559,1480.71L566.193,1480.71L566.193,1499.146L548.559,1499.146L548.559,1537.139C548.559,1542.269 550.803,1544.834 555.292,1544.834L564.269,1544.834L564.269,1564.071L552.406,1564.071Z" style="fill-rule:nonzero;"/>
                </g>
                <g transform="matrix(1,0,0,1,0,-27.903277)">
                    <path d="M368.05,1716.156C354.049,1716.156 342.507,1711.293 333.423,1701.567L348.011,1688.262C354.103,1695.101 360.622,1698.521 367.569,1698.521C371.309,1698.521 374.168,1697.693 376.145,1696.037C378.123,1694.38 379.111,1692.323 379.111,1689.865C379.111,1688.368 378.764,1687.086 378.069,1686.017C377.374,1684.949 375.932,1683.933 373.741,1682.971C371.55,1682.009 368.263,1681.048 363.882,1680.086C356.401,1678.269 350.843,1676.025 347.209,1673.353C343.576,1670.681 341.171,1667.688 339.996,1664.375C338.82,1661.062 338.232,1657.642 338.232,1654.116C338.232,1646.848 340.984,1640.783 346.488,1635.92C351.992,1631.058 359.607,1628.626 369.332,1628.626C376.065,1628.626 381.836,1629.642 386.646,1631.672C391.455,1633.703 395.997,1637.497 400.272,1643.054L384.562,1655.077C382.531,1651.871 380.26,1649.573 377.749,1648.184C375.237,1646.795 372.592,1646.1 369.813,1646.1C366.821,1646.1 364.336,1646.688 362.359,1647.863C360.382,1649.039 359.393,1650.909 359.393,1653.474C359.393,1654.864 360.034,1656.226 361.317,1657.562C362.599,1658.898 365.699,1660.207 370.615,1661.49C378.737,1663.52 384.936,1665.898 389.211,1668.624C393.486,1671.349 396.425,1674.421 398.028,1677.841C399.631,1681.261 400.432,1685.055 400.432,1689.223C400.432,1694.353 399.016,1698.949 396.184,1703.01C393.352,1707.071 389.505,1710.277 384.642,1712.629C379.779,1714.98 374.248,1716.156 368.05,1716.156Z" style="fill-rule:nonzero;"/>
                </g>
                <g transform="matrix(1,0,0,1,-2.536662,-27.903277)">
                    <path d="M448.686,1716.156C442.701,1716.156 437.117,1715.033 431.933,1712.789C426.75,1710.545 422.181,1707.419 418.227,1703.411C414.272,1699.403 411.2,1694.754 409.009,1689.464C406.818,1684.174 405.723,1678.483 405.723,1672.391C405.723,1664.269 407.62,1656.921 411.414,1650.348C415.208,1643.776 420.444,1638.512 427.124,1634.558C433.804,1630.603 441.365,1628.626 449.808,1628.626C457.396,1628.519 464.182,1629.855 470.167,1632.634C476.152,1635.413 480.908,1639.26 484.435,1644.176L467.763,1657.803C465.839,1654.917 463.354,1652.619 460.308,1650.909C457.262,1649.199 453.869,1648.344 450.128,1648.344C445.533,1648.344 441.525,1649.44 438.105,1651.631C434.685,1653.822 432.04,1656.734 430.17,1660.368C428.3,1664.001 427.364,1668.009 427.364,1672.391C427.364,1676.666 428.353,1680.647 430.33,1684.334C432.307,1688.021 435.033,1690.96 438.506,1693.151C441.979,1695.342 446.014,1696.437 450.609,1696.437C454.777,1696.437 458.304,1695.502 461.19,1693.632C464.075,1691.762 466.587,1689.384 468.724,1686.498L484.435,1700.125C480.48,1705.148 475.591,1709.075 469.766,1711.907C463.942,1714.739 456.915,1716.156 448.686,1716.156Z" style="fill-rule:nonzero;"/>
                </g>
                <g transform="matrix(1,0,0,1,-4.227769,-27.903277)">
                    <path d="M492.931,1714.071L492.931,1597.045L514.573,1597.045L514.573,1642.253C519.062,1633.275 527.451,1628.787 539.742,1628.787C545.727,1628.787 551.124,1630.176 555.933,1632.955C560.742,1635.733 564.536,1639.688 567.315,1644.818C570.094,1649.947 571.483,1656.039 571.483,1663.093L571.483,1714.071L549.841,1714.071L549.841,1668.383C549.841,1661.116 548.185,1655.852 544.872,1652.593C541.559,1649.333 537.23,1647.703 531.887,1647.703C527.291,1647.703 523.257,1649.333 519.783,1652.593C516.31,1655.852 514.573,1661.116 514.573,1668.383L514.573,1714.071L492.931,1714.071Z" style="fill-rule:nonzero;"/>
                </g>
                <g transform="matrix(1,0,0,1,-6.764431,-27.903277)">
                    <path d="M624.706,1716.156C616.156,1716.156 608.515,1714.178 601.782,1710.224C595.049,1706.27 589.785,1701.006 585.991,1694.434C582.197,1687.861 580.3,1680.567 580.3,1672.551C580.3,1664.536 582.197,1657.215 585.991,1650.589C589.785,1643.963 595.049,1638.672 601.782,1634.718C608.515,1630.764 616.156,1628.787 624.706,1628.787C633.363,1628.787 641.031,1630.764 647.71,1634.718C654.39,1638.672 659.627,1643.963 663.421,1650.589C667.215,1657.215 669.112,1664.536 669.112,1672.551C669.112,1680.567 667.215,1687.861 663.421,1694.434C659.627,1701.006 654.39,1706.27 647.71,1710.224C641.031,1714.178 633.363,1716.156 624.706,1716.156ZM624.706,1696.437C629.302,1696.437 633.309,1695.342 636.729,1693.151C640.149,1690.96 642.794,1688.048 644.665,1684.414C646.535,1680.78 647.47,1676.826 647.47,1672.551C647.47,1668.169 646.535,1664.162 644.665,1660.528C642.794,1656.894 640.149,1653.982 636.729,1651.791C633.309,1649.6 629.302,1648.505 624.706,1648.505C620.11,1648.505 616.103,1649.6 612.683,1651.791C609.263,1653.982 606.618,1656.894 604.747,1660.528C602.877,1664.162 601.942,1668.169 601.942,1672.551C601.942,1676.826 602.877,1680.78 604.747,1684.414C606.618,1688.048 609.263,1690.96 612.683,1693.151C616.103,1695.342 620.11,1696.437 624.706,1696.437Z" style="fill-rule:nonzero;"/>
                </g>
                <g transform="matrix(1,0,0,1,-8.455539,-27.903277)">
                    <path d="M719.129,1716.156C710.579,1716.156 702.937,1714.178 696.204,1710.224C689.471,1706.27 684.208,1701.006 680.414,1694.434C676.62,1687.861 674.723,1680.567 674.723,1672.551C674.723,1664.536 676.62,1657.215 680.414,1650.589C684.208,1643.963 689.471,1638.672 696.204,1634.718C702.937,1630.764 710.579,1628.787 719.129,1628.787C727.785,1628.787 735.453,1630.764 742.133,1634.718C748.813,1638.672 754.049,1643.963 757.843,1650.589C761.637,1657.215 763.534,1664.536 763.534,1672.551C763.534,1680.567 761.637,1687.861 757.843,1694.434C754.049,1701.006 748.813,1706.27 742.133,1710.224C735.453,1714.178 727.785,1716.156 719.129,1716.156ZM719.129,1696.437C723.724,1696.437 727.732,1695.342 731.152,1693.151C734.572,1690.96 737.217,1688.048 739.087,1684.414C740.957,1680.78 741.893,1676.826 741.893,1672.551C741.893,1668.169 740.957,1664.162 739.087,1660.528C737.217,1656.894 734.572,1653.982 731.152,1651.791C727.732,1649.6 723.724,1648.505 719.129,1648.505C714.533,1648.505 710.525,1649.6 707.105,1651.791C703.685,1653.982 701.04,1656.894 699.17,1660.528C697.3,1664.162 696.365,1668.169 696.365,1672.551C696.365,1676.826 697.3,1680.78 699.17,1684.414C701.04,1688.048 703.685,1690.96 707.105,1693.151C710.525,1695.342 714.533,1696.437 719.129,1696.437Z" style="fill-rule:nonzero;"/>
                </g>
                <g transform="matrix(1,0,0,1,-10.9922,-27.903277)">
                    <rect x="773.153" y="1597.045" width="21.642" height="117.026" style="fill-rule:nonzero;"/>
                </g>
            </g>
            <g id="Cap" transform="matrix(1,0,0,1,6,0)">
                <g transform="matrix(1.538241,0,0,0.769121,200.749726,1178.744338)">
                    <path d="M447.919,328.19L456.724,355.778L447.919,355.778L447.919,328.19Z"/>
                </g>
                <g transform="matrix(1.907665,0,0,1.660321,37.965815,-973.314932)">
                    <path d="M442.175,1449.118L442.175,1475.199C442.175,1475.199 429.698,1456.198 387.182,1456.198C344.665,1456.198 332.057,1475.199 332.057,1475.199L332.057,1449.118L387.182,1453.621L442.175,1449.118Z"/>
                </g>
                <g transform="matrix(2,0,0,1,0,2)">
                    <path d="M388.226,1412.644L457.358,1423.448L388.226,1433.218L319.886,1423.448L388.226,1412.644Z"/>
                </g>
                <g transform="matrix(2.365314,0,0,1.182657,-338.294294,-299.759746)">
                    <path d="M471.289,1566.156C462.74,1566.156 455.098,1564.178 448.365,1560.224C441.632,1556.27 436.369,1551.006 432.575,1544.434C428.781,1537.861 426.884,1530.567 426.884,1522.551C426.884,1514.536 428.781,1507.215 432.575,1500.589C436.369,1493.963 441.632,1488.672 448.365,1484.718C455.098,1480.764 462.74,1478.787 471.289,1478.787C479.946,1478.787 487.614,1480.764 494.294,1484.718C500.973,1488.672 506.21,1493.963 510.004,1500.589C513.798,1507.215 515.695,1514.536 515.695,1522.551C515.695,1530.567 513.798,1537.861 510.004,1544.434C506.21,1551.006 500.973,1556.27 494.294,1560.224C487.614,1564.178 479.946,1566.156 471.289,1566.156ZM471.289,1546.437C475.885,1546.437 479.893,1545.342 483.313,1543.151C486.733,1540.96 489.378,1538.048 491.248,1534.414C493.118,1530.78 494.053,1526.826 494.053,1522.551C494.053,1518.169 493.118,1514.162 491.248,1510.528C489.378,1506.894 486.733,1503.982 483.313,1501.791C479.893,1499.6 475.885,1498.505 471.289,1498.505C466.694,1498.505 462.686,1499.6 459.266,1501.791C455.846,1503.982 453.201,1506.894 451.331,1510.528C449.46,1514.162 448.525,1518.169 448.525,1522.551C448.525,1526.826 449.46,1530.78 451.331,1534.414C453.201,1538.048 455.846,1540.96 459.266,1543.151C462.686,1545.342 466.694,1546.437 471.289,1546.437Z" style="fill-rule:nonzero;"/>
                </g>
            </g>
        </g>
    </g>
</svg>
